<?xml version="1.0" standalone="no"?>
<!DOCTYPE svg PUBLIC "-//W3C//DTD SVG 20010904//EN"
 "http://www.w3.org/TR/2001/REC-SVG-20010904/DTD/svg10.dtd">
<svg version="1.0" xmlns="http://www.w3.org/2000/svg"
 width="512.000000pt" height="512.000000pt" viewBox="0 0 512.000000 512.000000"
 preserveAspectRatio="xMidYMid meet">

<g transform="translate(0.000000,512.000000) scale(0.100000,-0.100000)"
fill="#000000" stroke="none">
<path d="M2340 4904 c-480 -58 -851 -205 -1225 -487 -103 -78 -334 -309 -412
-412 -197 -261 -330 -526 -409 -815 -35 -125 -74 -338 -74 -395 l1 -30 624
-253 624 -254 73 36 c85 42 161 63 261 72 l72 7 270 387 270 387 12 96 c29
232 99 382 247 535 171 177 379 265 626 265 240 0 428 -77 608 -247 255 -242
335 -609 205 -950 -55 -145 -188 -308 -328 -401 -123 -81 -320 -145 -452 -145
-51 0 -52 -1 -440 -276 l-388 -275 -7 -57 c-30 -229 -67 -313 -197 -442 -69
-69 -103 -94 -171 -127 -228 -112 -467 -91 -677 56 -110 78 -184 179 -234 321
l-26 75 -449 187 c-246 103 -450 186 -452 184 -6 -7 40 -148 84 -259 278 -693
876 -1218 1598 -1402 214 -54 342 -69 586 -69 244 0 372 15 586 69 876 223
1552 940 1723 1828 34 174 44 316 38 521 -15 510 -171 948 -490 1371 -78 103
-309 334 -412 412 -330 249 -659 393 -1060 464 -94 17 -170 22 -345 24 -124 2
-241 1 -260 -1z"/>
<path d="M3145 3731 c-251 -72 -424 -300 -425 -558 0 -100 15 -164 62 -262 66
-139 188 -243 348 -297 77 -26 263 -26 340 0 156 52 280 158 348 298 47 96 62
160 62 261 -1 262 -182 496 -436 561 -81 21 -222 20 -299 -3z m340 -164 c228
-109 319 -374 204 -599 -33 -64 -124 -154 -190 -187 -206 -103 -443 -35 -570
162 -106 164 -80 393 60 534 95 95 201 135 339 129 69 -3 94 -9 157 -39z"/>
<path d="M1705 2176 c-39 -13 -40 -13 -15 -23 14 -6 81 -34 150 -62 69 -29
143 -63 166 -76 56 -33 111 -96 142 -164 36 -77 38 -211 4 -285 -48 -105 -134
-179 -246 -211 -93 -27 -151 -17 -338 59 -89 36 -164 64 -166 61 -8 -8 59 -94
109 -139 163 -147 404 -164 594 -41 64 41 105 85 150 160 48 81 67 150 66 248
0 222 -140 410 -350 471 -65 19 -209 20 -266 2z"/>
</g>
</svg>
